<svg width="25" height="24" viewBox="0 0 25 24" fill="none" xmlns="http://www.w3.org/2000/svg">
<path d="M12.5 18.75C12.09 18.75 11.75 18.41 11.75 18V15C11.75 14.59 12.09 14.25 12.5 14.25C12.91 14.25 13.25 14.59 13.25 15V18C13.25 18.41 12.91 18.75 12.5 18.75Z" fill="#6200EE"/>
<path d="M18.1 22.5599H6.89996C5.07996 22.5599 3.41996 21.1599 3.11996 19.3699L1.78996 11.3999C1.56996 10.1599 2.17996 8.56994 3.16996 7.77994L10.1 2.22994C11.44 1.14994 13.55 1.15994 14.9 2.23994L21.83 7.77994C22.81 8.56994 23.41 10.1599 23.21 11.3999L21.88 19.3599C21.58 21.1299 19.88 22.5599 18.1 22.5599ZM12.49 2.92994C11.96 2.92994 11.43 3.08994 11.04 3.39994L4.10996 8.95994C3.54996 9.40994 3.14996 10.4499 3.26996 11.1599L4.59996 19.1199C4.77996 20.1699 5.82996 21.0599 6.89996 21.0599H18.1C19.17 21.0599 20.22 20.1699 20.4 19.1099L21.73 11.1499C21.84 10.4499 21.44 9.38994 20.89 8.94994L13.96 3.40994C13.56 3.08994 13.02 2.92994 12.49 2.92994Z" fill="#6200EE"/>
</svg>
