<svg width="131" height="28" viewBox="0 0 131 28" fill="none" xmlns="http://www.w3.org/2000/svg">
<mask id="path-1-inside-1_4_54" fill="white">
<path d="M15.3069 3.51802C12.9558 2.95508 10.4794 3.28568 8.3583 4.44566C6.23722 5.60564 4.62273 7.51226 3.82817 9.79551C3.0336 12.0787 3.11563 14.5758 4.05833 16.8019C5.00103 19.0281 6.73716 20.8247 8.9298 21.8429C11.1224 22.8612 13.6152 23.0286 15.9243 22.3125C18.2333 21.5965 20.194 20.0482 21.4259 17.968C22.6577 15.8878 23.0728 13.4242 22.5906 11.0552C22.1084 8.68628 20.7633 6.58094 18.8163 5.14783L13.0365 13L15.3069 3.51802Z"/>
</mask>
<path d="M15.3069 3.51802C12.9558 2.95508 10.4794 3.28568 8.3583 4.44566C6.23722 5.60564 4.62273 7.51226 3.82817 9.79551C3.0336 12.0787 3.11563 14.5758 4.05833 16.8019C5.00103 19.0281 6.73716 20.8247 8.9298 21.8429C11.1224 22.8612 13.6152 23.0286 15.9243 22.3125C18.2333 21.5965 20.194 20.0482 21.4259 17.968C22.6577 15.8878 23.0728 13.4242 22.5906 11.0552C22.1084 8.68628 20.7633 6.58094 18.8163 5.14783L13.0365 13L15.3069 3.51802Z" fill="white" stroke="white" stroke-width="1.625" mask="url(#path-1-inside-1_4_54)"/>
<circle cx="13" cy="13" r="12.1875" stroke="white" stroke-width="1.625"/>
<path d="M42.1387 10.293H41.3281C41.2695 10.293 41.1947 10.2344 41.1035 10.1172C41.0124 9.99349 40.9049 9.83724 40.7812 9.64844C40.6641 9.45964 40.5273 9.2513 40.3711 9.02344C40.2148 8.78906 40.0293 8.55794 39.8145 8.33008C39.6061 8.10221 39.3815 7.89388 39.1406 7.70508C38.9062 7.51628 38.6263 7.36328 38.3008 7.24609C37.9818 7.1224 37.6497 7.06055 37.3047 7.06055C36.6992 7.06055 36.1393 7.17122 35.625 7.39258C35.1107 7.60742 34.6745 7.90039 34.3164 8.27148C33.9583 8.63607 33.6491 9.06576 33.3887 9.56055C33.1348 10.0488 32.946 10.5664 32.8223 11.1133C32.7051 11.6602 32.6465 12.2201 32.6465 12.793C32.6465 13.3398 32.7181 13.8737 32.8613 14.3945C33.0111 14.9089 33.2357 15.3971 33.5352 15.8594C33.8411 16.3216 34.2057 16.7285 34.6289 17.0801C35.0586 17.4251 35.5762 17.7018 36.1816 17.9102C36.7871 18.112 37.4447 18.2129 38.1543 18.2129C39.6712 18.2129 41.071 17.7344 42.3535 16.7773C42.6074 17.1159 42.7344 17.4479 42.7344 17.7734C42.7344 18.2422 42.4805 18.6751 41.9727 19.0723C41.4714 19.4629 40.8529 19.7591 40.1172 19.9609C39.3815 20.1628 38.6393 20.2637 37.8906 20.2637C36.888 20.2637 35.9635 20.1237 35.1172 19.8438C34.2773 19.5638 33.5645 19.1862 32.9785 18.7109C32.3926 18.2357 31.8913 17.6823 31.4746 17.0508C31.0645 16.4128 30.7617 15.7389 30.5664 15.0293C30.3776 14.3197 30.2832 13.5872 30.2832 12.832C30.2832 11.8099 30.4492 10.8366 30.7812 9.91211C31.1133 8.98763 31.5723 8.18034 32.1582 7.49023C32.7441 6.80013 33.4701 6.25326 34.3359 5.84961C35.2018 5.43945 36.1361 5.23438 37.1387 5.23438C37.7767 5.23438 38.4212 5.3776 39.0723 5.66406C39.7298 5.94401 40.2604 6.36068 40.6641 6.91406C40.6641 5.9375 40.791 5.44922 41.0449 5.44922H42.1387C42.4512 5.44922 42.6074 5.78776 42.6074 6.46484V9.07227C42.6074 9.44336 42.5879 9.7168 42.5488 9.89258C42.5163 10.0618 42.4707 10.1693 42.4121 10.2148C42.36 10.2539 42.2689 10.2799 42.1387 10.293ZM47.1973 17.5488C47.1973 17.6465 47.2005 17.7246 47.207 17.7832C47.2201 17.8353 47.2428 17.8971 47.2754 17.9688C47.3145 18.0404 47.3796 18.0957 47.4707 18.1348C47.5618 18.1673 47.679 18.1836 47.8223 18.1836C48.0697 18.1836 48.2812 18.2227 48.457 18.3008C48.6328 18.3789 48.7207 18.4961 48.7207 18.6523C48.7207 19.4141 48.6133 19.8893 48.3984 20.0781C47.8385 20.026 47.0898 20 46.1523 20C45.1497 20 44.362 20.026 43.7891 20.0781C43.5742 19.8828 43.4668 19.4076 43.4668 18.6523C43.4668 18.4961 43.5547 18.3789 43.7305 18.3008C43.9062 18.2227 44.1178 18.1836 44.3652 18.1836C44.6191 18.1836 44.7852 18.1315 44.8633 18.0273C44.9414 17.9167 44.9805 17.7637 44.9805 17.5684V8.19336C44.9805 7.84831 44.8796 7.60417 44.6777 7.46094C44.4824 7.31771 44.1016 7.23307 43.5352 7.20703C43.4505 7.1875 43.3952 7.14518 43.3691 7.08008C43.3496 7.01497 43.3398 6.875 43.3398 6.66016C43.3398 6.32812 43.3757 6.03516 43.4473 5.78125C43.5189 5.52734 43.5905 5.38086 43.6621 5.3418C44.2025 5.41341 44.7201 5.44922 45.2148 5.44922C45.5078 5.44922 45.8171 5.43294 46.1426 5.40039C46.4681 5.36133 46.6406 5.3418 46.6602 5.3418C46.888 5.3418 47.0345 5.40039 47.0996 5.51758C47.1712 5.62826 47.207 5.88867 47.207 6.29883C47.207 6.31185 47.207 6.33138 47.207 6.35742C47.2005 7.27539 47.1973 11.0059 47.1973 17.5488ZM49.8438 17.168C49.5312 16.4518 49.375 15.6543 49.375 14.7754C49.375 13.8965 49.5312 13.1022 49.8438 12.3926C50.1562 11.6829 50.5729 11.11 51.0938 10.6738C51.6146 10.2311 52.1973 9.89258 52.8418 9.6582C53.4863 9.42383 54.1602 9.30664 54.8633 9.30664C55.5599 9.30664 56.2305 9.42383 56.875 9.6582C57.5195 9.89258 58.099 10.2311 58.6133 10.6738C59.1341 11.11 59.5508 11.6829 59.8633 12.3926C60.1758 13.1022 60.332 13.8965 60.332 14.7754C60.332 15.6543 60.1758 16.4518 59.8633 17.168C59.5508 17.8776 59.1341 18.4538 58.6133 18.8965C58.099 19.3392 57.5195 19.6777 56.875 19.9121C56.2305 20.1465 55.5599 20.2637 54.8633 20.2637C54.1602 20.2637 53.4863 20.1465 52.8418 19.9121C52.1973 19.6777 51.6146 19.3392 51.0938 18.8965C50.5729 18.4538 50.1562 17.8776 49.8438 17.168ZM52.6074 11.9727C51.9759 12.6432 51.6602 13.5775 51.6602 14.7754C51.6602 15.9733 51.9759 16.9108 52.6074 17.5879C53.2389 18.2585 53.9844 18.5938 54.8438 18.5938C55.2539 18.5938 55.6478 18.5124 56.0254 18.3496C56.403 18.1868 56.7415 17.9525 57.041 17.6465C57.347 17.334 57.5911 16.9303 57.7734 16.4355C57.9557 15.9408 58.0469 15.3874 58.0469 14.7754C58.0469 14.1634 57.9557 13.61 57.7734 13.1152C57.5911 12.6204 57.347 12.2201 57.041 11.9141C56.7415 11.6081 56.403 11.3737 56.0254 11.2109C55.6478 11.0482 55.2539 10.9668 54.8438 10.9668C53.9844 10.9668 53.2389 11.3021 52.6074 11.9727ZM70.4199 11.9141C70.4199 12.2982 70.2832 12.6237 70.0098 12.8906C69.7428 13.1576 69.3197 13.291 68.7402 13.291C68.6035 13.291 68.5189 13.2617 68.4863 13.2031C68.4603 13.138 68.4342 12.972 68.4082 12.7051L68.2617 11.3086C68.2161 11.276 68.151 11.2402 68.0664 11.2012C67.9883 11.1556 67.806 11.097 67.5195 11.0254C67.2396 10.9473 66.9434 10.9082 66.6309 10.9082C65.6413 10.9082 64.8405 11.2923 64.2285 12.0605C63.623 12.8223 63.3203 13.7305 63.3203 14.7852C63.3203 15.9245 63.6165 16.8132 64.209 17.4512C64.8014 18.0892 65.6576 18.4082 66.7773 18.4082C67.2982 18.4082 67.8646 18.2975 68.4766 18.0762C69.0951 17.8548 69.5996 17.5716 69.9902 17.2266C70.3613 17.6628 70.5469 18.0794 70.5469 18.4766C70.5469 18.8021 70.3548 19.1048 69.9707 19.3848C69.5866 19.6647 69.0918 19.8796 68.4863 20.0293C67.8874 20.1855 67.2624 20.2637 66.6113 20.2637C65.8561 20.2637 65.1432 20.1465 64.4727 19.9121C63.8086 19.6712 63.2194 19.3262 62.7051 18.877C62.1908 18.4212 61.7839 17.8353 61.4844 17.1191C61.1849 16.3965 61.0352 15.5827 61.0352 14.6777C61.0352 13.8379 61.1914 13.0729 61.5039 12.3828C61.8229 11.6862 62.2428 11.1198 62.7637 10.6836C63.2845 10.2409 63.8672 9.90234 64.5117 9.66797C65.1628 9.42708 65.8301 9.30664 66.5137 9.30664C67.2103 9.30664 67.8158 9.37826 68.3301 9.52148C68.8509 9.6582 69.2578 9.85026 69.5508 10.0977C69.8503 10.3451 70.0684 10.6217 70.2051 10.9277C70.3483 11.2272 70.4199 11.556 70.4199 11.9141ZM75.0488 6.83594V13.4668L78.1348 11.6309C78.4668 11.39 78.6393 11.2565 78.6523 11.2305C78.6589 11.224 78.6621 11.2109 78.6621 11.1914C78.6621 11.1589 78.623 11.1393 78.5449 11.1328C78.4733 11.1198 78.3887 11.11 78.291 11.1035C78.1999 11.097 78.1152 11.0482 78.0371 10.957C77.9655 10.8594 77.9297 10.7161 77.9297 10.5273C77.9297 10 78.0176 9.64193 78.1934 9.45312C78.6296 9.53776 79.388 9.58008 80.4688 9.58008C81.2565 9.58008 81.9141 9.53776 82.4414 9.45312C82.6497 9.54427 82.7539 9.9349 82.7539 10.625C82.7539 10.8659 82.7311 11.0352 82.6855 11.1328C82.64 11.2305 82.5521 11.2988 82.4219 11.3379C82.2917 11.377 82.1419 11.4095 81.9727 11.4355C81.8099 11.4551 81.5723 11.5267 81.2598 11.6504C80.9538 11.7741 80.6348 11.9499 80.3027 12.1777L77.9395 13.7207C79.5996 15.791 80.5436 16.9857 80.7715 17.3047C80.8366 17.3958 80.918 17.5163 81.0156 17.666C81.1198 17.8092 81.1849 17.8971 81.2109 17.9297C81.2435 17.9622 81.3021 18.0078 81.3867 18.0664C81.4714 18.125 81.5592 18.1608 81.6504 18.1738C81.7415 18.1803 81.8717 18.1836 82.041 18.1836C82.8548 18.1836 83.2617 18.3398 83.2617 18.6523C83.2617 19.4076 83.1543 19.8828 82.9395 20.0781C82.334 20.026 81.6341 20 80.8398 20C80.2018 20 79.4531 20.026 78.5938 20.0781C78.5677 19.9479 78.5286 19.7754 78.4766 19.5605C78.431 19.3392 78.3952 19.1602 78.3691 19.0234C78.3496 18.8802 78.3398 18.7598 78.3398 18.6621C78.3398 18.4212 78.6198 18.2747 79.1797 18.2227C79.082 18.0664 78.9193 17.8353 78.6914 17.5293C78.4635 17.2233 78.1022 16.748 77.6074 16.1035C77.1126 15.4525 76.722 14.9382 76.4355 14.5605L75.0488 15.4199V17.5488C75.0488 17.6465 75.0521 17.7246 75.0586 17.7832C75.0716 17.8353 75.0944 17.8971 75.127 17.9688C75.166 18.0404 75.2311 18.0957 75.3223 18.1348C75.4134 18.1673 75.5306 18.1836 75.6738 18.1836C75.9212 18.1836 76.1328 18.2227 76.3086 18.3008C76.4844 18.3789 76.5723 18.4961 76.5723 18.6523C76.5723 19.4141 76.4648 19.8893 76.25 20.0781C75.638 20.026 74.8763 20 73.9648 20C72.9883 20 72.2135 20.026 71.6406 20.0781C71.4258 19.8828 71.3184 19.4076 71.3184 18.6523C71.3184 18.4961 71.4062 18.3789 71.582 18.3008C71.7578 18.2227 71.9694 18.1836 72.2168 18.1836C72.4707 18.1836 72.6367 18.1315 72.7148 18.0273C72.793 17.9167 72.832 17.7637 72.832 17.5684V8.19336C72.832 7.84831 72.7311 7.60417 72.5293 7.46094C72.334 7.31771 71.9531 7.23307 71.3867 7.20703C71.3021 7.1875 71.2467 7.14518 71.2207 7.08008C71.2012 7.01497 71.1914 6.875 71.1914 6.66016C71.1914 6.32812 71.2272 6.03516 71.2988 5.78125C71.3704 5.52734 71.4421 5.38086 71.5137 5.3418C72.054 5.41341 72.5716 5.44922 73.0664 5.44922C73.3594 5.44922 73.6686 5.43294 73.9941 5.40039C74.3197 5.36133 74.4922 5.3418 74.5117 5.3418C74.7396 5.3418 74.8861 5.40039 74.9512 5.51758C75.0228 5.62826 75.0586 5.88867 75.0586 6.29883C75.0586 6.3444 75.0553 6.42904 75.0488 6.55273C75.0488 6.66992 75.0488 6.76432 75.0488 6.83594ZM85.9961 17.4316V7.99805C85.9961 7.80273 85.957 7.65299 85.8789 7.54883C85.8008 7.43815 85.6348 7.38281 85.3809 7.38281C84.6517 7.38281 84.2871 7.21354 84.2871 6.875C84.2871 6.55599 84.3294 6.24349 84.4141 5.9375C84.4987 5.625 84.6289 5.41992 84.8047 5.32227C85.6641 5.4069 86.862 5.44922 88.3984 5.44922C88.9388 5.44922 89.6126 5.42318 90.4199 5.37109C91.2337 5.31901 91.7676 5.29297 92.0215 5.29297C92.7246 5.29297 93.3724 5.3776 93.9648 5.54688C94.5573 5.71615 95.0618 5.94727 95.4785 6.24023C95.8952 6.52669 96.2467 6.86523 96.5332 7.25586C96.8262 7.64648 97.041 8.0599 97.1777 8.49609C97.321 8.92578 97.3926 9.37174 97.3926 9.83398C97.3926 10.4069 97.2754 10.957 97.041 11.4844C96.8132 12.0052 96.4811 12.4772 96.0449 12.9004C95.6152 13.3236 95.0521 13.6621 94.3555 13.916C93.6589 14.1699 92.8809 14.2969 92.0215 14.2969H88.252V17.4121C88.252 17.5098 88.2552 17.5879 88.2617 17.6465C88.2747 17.6986 88.2975 17.7604 88.3301 17.832C88.3691 17.9036 88.4342 17.959 88.5254 17.998C88.6165 18.0306 88.7337 18.0469 88.877 18.0469C89.1764 18.0469 89.4336 18.0859 89.6484 18.1641C89.8633 18.2422 89.9707 18.3594 89.9707 18.5156C89.9707 18.8542 89.9349 19.1797 89.8633 19.4922C89.7982 19.7982 89.694 20.0033 89.5508 20.1074C88.6198 20.0358 87.8158 20 87.1387 20C86.5007 20 85.7227 20.0358 84.8047 20.1074C84.6289 20.0033 84.4987 19.7949 84.4141 19.4824C84.3294 19.1699 84.2871 18.8477 84.2871 18.5156C84.2871 18.3594 84.3945 18.2422 84.6094 18.1641C84.8242 18.0859 85.0814 18.0469 85.3809 18.0469C85.6348 18.0469 85.8008 17.9948 85.8789 17.8906C85.957 17.7799 85.9961 17.627 85.9961 17.4316ZM88.252 12.6465H92.0215C92.9915 12.6465 93.7533 12.3763 94.3066 11.8359C94.86 11.2891 95.1367 10.6445 95.1367 9.90234C95.1367 9.14062 94.8633 8.48307 94.3164 7.92969C93.776 7.36979 93.0111 7.08984 92.0215 7.08984H88.252V12.6465ZM105.43 18.6719C104.954 19.1732 104.352 19.5638 103.623 19.8438C102.9 20.1237 102.165 20.2637 101.416 20.2637C100.485 20.2637 99.7168 20.0163 99.1113 19.5215C98.5059 19.0267 98.2031 18.3105 98.2031 17.373C98.2031 16.3704 98.6882 15.6152 99.6582 15.1074C100.387 14.7168 101.637 14.3783 103.408 14.0918C103.74 14.0332 104.281 13.9486 105.029 13.8379C105.029 12.7311 104.889 11.9694 104.609 11.5527C104.329 11.1361 103.792 10.9277 102.998 10.9277C102.419 10.9277 101.774 11.0579 101.064 11.3184C100.355 11.5788 99.7884 11.9401 99.3652 12.4023C98.8379 11.9596 98.5742 11.5267 98.5742 11.1035C98.5742 10.7389 98.8249 10.4167 99.3262 10.1367C99.8275 9.85026 100.417 9.64193 101.094 9.51172C101.777 9.375 102.461 9.30664 103.145 9.30664C103.789 9.30664 104.352 9.38802 104.834 9.55078C105.322 9.70703 105.752 9.96745 106.123 10.332C106.494 10.6966 106.774 11.1979 106.963 11.8359C107.158 12.474 107.256 13.2487 107.256 14.1602V17.2852C107.256 17.5521 107.275 17.7539 107.314 17.8906C107.36 18.0208 107.409 18.1022 107.461 18.1348C107.513 18.1608 107.598 18.1803 107.715 18.1934C107.917 18.2129 108.066 18.2324 108.164 18.252C108.262 18.265 108.376 18.2878 108.506 18.3203C108.636 18.3529 108.727 18.3952 108.779 18.4473C108.838 18.4993 108.867 18.5645 108.867 18.6426C108.867 19.4108 108.76 19.8893 108.545 20.0781C108.232 20.026 107.826 20 107.324 20C106.868 20 106.445 20.0228 106.055 20.0684C106.009 20.0358 105.951 19.9902 105.879 19.9316C105.814 19.873 105.723 19.7233 105.605 19.4824C105.488 19.2415 105.43 18.9714 105.43 18.6719ZM101.865 18.5254C102.458 18.5254 103.099 18.3626 103.789 18.0371C104.479 17.7051 104.896 17.4056 105.039 17.1387V15.4102C103.262 15.7292 102.061 16.0156 101.436 16.2695C100.817 16.5234 100.508 16.8815 100.508 17.3438C100.508 18.1315 100.96 18.5254 101.865 18.5254ZM116.426 18.0469C116.621 18.418 116.719 18.7663 116.719 19.0918C116.719 19.2741 116.637 19.4336 116.475 19.5703C116.318 19.7005 116.113 19.8014 115.859 19.873C115.605 19.9447 115.352 19.9967 115.098 20.0293C114.844 20.0618 114.596 20.0781 114.355 20.0781C113.991 20.0781 113.652 20.026 113.34 19.9219C113.027 19.8177 112.728 19.6484 112.441 19.4141C112.161 19.1732 111.94 18.8281 111.777 18.3789C111.615 17.9232 111.533 17.3828 111.533 16.7578V11.0938H111.113C110.345 11.0938 109.925 11.097 109.854 11.1035C109.639 11.0254 109.531 10.7747 109.531 10.3516C109.531 9.83724 109.694 9.58008 110.02 9.58008H111.533C111.559 9.37174 111.582 9.10156 111.602 8.76953C111.628 8.43099 111.65 8.16406 111.67 7.96875C111.689 7.77344 111.719 7.54232 111.758 7.27539C111.803 7.00846 111.862 6.80013 111.934 6.65039C112.012 6.49414 112.109 6.34115 112.227 6.19141C112.344 6.04167 112.493 5.93424 112.676 5.86914C112.865 5.79753 113.086 5.76172 113.34 5.76172C113.516 5.76172 113.652 5.79102 113.75 5.84961V9.58008H115.049C115.824 9.58008 116.23 9.5638 116.27 9.53125C116.595 9.53125 116.758 9.8112 116.758 10.3711C116.758 10.7943 116.65 11.0449 116.436 11.123C116.221 11.1035 115.801 11.0938 115.176 11.0938H113.75V16.6992C113.75 17.7799 114.102 18.3203 114.805 18.3203C115.26 18.3203 115.801 18.2292 116.426 18.0469ZM121.338 6.83594V10.9668C121.8 10.4785 122.354 10.0781 122.998 9.76562C123.643 9.45312 124.333 9.29688 125.068 9.29688C125.492 9.29688 125.879 9.36849 126.23 9.51172C126.589 9.65495 126.914 9.8763 127.207 10.1758C127.507 10.4753 127.741 10.8919 127.91 11.4258C128.079 11.9596 128.164 12.5879 128.164 13.3105V17.2852C128.164 17.9036 128.327 18.2259 128.652 18.252C128.704 18.2585 128.776 18.265 128.867 18.2715C128.965 18.278 129.04 18.2845 129.092 18.291C129.15 18.2975 129.219 18.3073 129.297 18.3203C129.375 18.3268 129.437 18.3366 129.482 18.3496C129.528 18.3561 129.58 18.3691 129.639 18.3887C129.704 18.4017 129.753 18.418 129.785 18.4375C129.818 18.457 129.85 18.4798 129.883 18.5059C129.915 18.5319 129.938 18.5645 129.951 18.6035C129.964 18.6361 129.971 18.6751 129.971 18.7207C129.971 19.4368 129.831 19.8893 129.551 20.0781C128.997 20.026 128.457 20 127.93 20C127.663 20 127.363 20.013 127.031 20.0391C126.699 20.0651 126.449 20.0781 126.279 20.0781C126.208 20.0781 126.149 20.0651 126.104 20.0391C126.064 20.0195 126.029 19.9577 125.996 19.8535C125.964 19.7493 125.947 19.5996 125.947 19.4043V13.4863C125.947 12.64 125.801 12.0215 125.508 11.6309C125.221 11.2337 124.84 11.0352 124.365 11.0352C123.91 11.0352 123.408 11.1719 122.861 11.4453C122.321 11.7188 121.813 12.0703 121.338 12.5V17.5488C121.338 17.6465 121.341 17.7246 121.348 17.7832C121.361 17.8353 121.383 17.8971 121.416 17.9688C121.455 18.0404 121.52 18.0957 121.611 18.1348C121.702 18.1673 121.82 18.1836 121.963 18.1836C122.21 18.1836 122.422 18.2227 122.598 18.3008C122.773 18.3789 122.861 18.4961 122.861 18.6523C122.861 19.4141 122.754 19.8893 122.539 20.0781C121.927 20.026 121.175 20 120.283 20C119.339 20 118.555 20.026 117.93 20.0781C117.715 19.8828 117.607 19.4076 117.607 18.6523C117.607 18.4961 117.695 18.3789 117.871 18.3008C118.047 18.2227 118.258 18.1836 118.506 18.1836C118.76 18.1836 118.926 18.1315 119.004 18.0273C119.082 17.9167 119.121 17.7637 119.121 17.5684V8.19336C119.121 7.84831 119.02 7.60417 118.818 7.46094C118.623 7.31771 118.242 7.23307 117.676 7.20703C117.591 7.1875 117.536 7.14518 117.51 7.08008C117.49 7.01497 117.48 6.875 117.48 6.66016C117.48 6.32812 117.516 6.03516 117.588 5.78125C117.66 5.52734 117.731 5.38086 117.803 5.3418C118.343 5.41341 118.861 5.44922 119.355 5.44922C119.648 5.44922 119.958 5.43294 120.283 5.40039C120.609 5.36133 120.781 5.3418 120.801 5.3418C121.029 5.3418 121.175 5.40039 121.24 5.51758C121.312 5.62826 121.348 5.88867 121.348 6.29883C121.348 6.3444 121.344 6.42904 121.338 6.55273C121.338 6.66992 121.338 6.76432 121.338 6.83594Z" fill="white"/>
</svg>
