<svg width="25" height="24" viewBox="0 0 25 24" fill="none" xmlns="http://www.w3.org/2000/svg">
<path d="M12.5201 20.53C10.1901 20.53 7.86011 20.16 5.65011 19.42C4.81011 19.13 4.17011 18.54 3.89011 17.77C3.60011 17 3.70011 16.15 4.16011 15.39L5.31011 13.48C5.55011 13.08 5.77011 12.28 5.77011 11.81V8.92004C5.77011 5.20004 8.80011 2.17004 12.5201 2.17004C16.2401 2.17004 19.2701 5.20004 19.2701 8.92004V11.81C19.2701 12.27 19.4901 13.08 19.7301 13.49L20.8701 15.39C21.3001 16.11 21.3801 16.98 21.0901 17.77C20.8001 18.56 20.1701 19.16 19.3801 19.42C17.1801 20.16 14.8501 20.53 12.5201 20.53ZM12.5201 3.67004C9.63011 3.67004 7.27011 6.02004 7.27011 8.92004V11.81C7.27011 12.54 6.97011 13.62 6.60011 14.25L5.45011 16.16C5.23011 16.53 5.17011 16.92 5.30011 17.25C5.42011 17.59 5.72011 17.85 6.13011 17.99C10.3101 19.39 14.7401 19.39 18.9201 17.99C19.2801 17.87 19.5601 17.6 19.6901 17.24C19.8201 16.88 19.7901 16.49 19.5901 16.16L18.4401 14.25C18.0601 13.6 17.7701 12.53 17.7701 11.8V8.92004C17.7701 6.02004 15.4201 3.67004 12.5201 3.67004Z" fill="#868686"/>
<path d="M14.3801 3.94005C14.3101 3.94005 14.2401 3.93005 14.1701 3.91005C13.8801 3.83005 13.6001 3.77005 13.3301 3.73005C12.4801 3.62005 11.6601 3.68005 10.8901 3.91005C10.6101 4.00005 10.3101 3.91005 10.1201 3.70005C9.93011 3.49005 9.87011 3.19005 9.98011 2.92005C10.3901 1.87005 11.3901 1.18005 12.5301 1.18005C13.6701 1.18005 14.6701 1.86005 15.0801 2.92005C15.1801 3.19005 15.1301 3.49005 14.9401 3.70005C14.7901 3.86005 14.5801 3.94005 14.3801 3.94005Z" fill="#868686"/>
<path d="M12.52 22.8101C11.53 22.8101 10.57 22.4101 9.87002 21.7101C9.17002 21.0101 8.77002 20.0501 8.77002 19.0601H10.27C10.27 19.6501 10.51 20.2301 10.93 20.6501C11.35 21.0701 11.93 21.3101 12.52 21.3101C13.76 21.3101 14.77 20.3001 14.77 19.0601H16.27C16.27 21.1301 14.59 22.8101 12.52 22.8101Z" fill="#868686"/>
</svg>
