<svg width="18" height="19" viewBox="0 0 18 19" fill="none" xmlns="http://www.w3.org/2000/svg">
<path d="M6.68245 16.0025C6.53995 16.0025 6.39745 15.95 6.28495 15.8375C6.06745 15.62 6.06745 15.26 6.28495 15.0425L11.175 10.1525C11.535 9.79251 11.535 9.20751 11.175 8.84751L6.28495 3.95751C6.06745 3.74001 6.06745 3.38001 6.28495 3.16251C6.50245 2.94501 6.86245 2.94501 7.07995 3.16251L11.97 8.05251C12.3525 8.43501 12.57 8.95252 12.57 9.50002C12.57 10.0475 12.36 10.565 11.97 10.9475L7.07995 15.8375C6.96745 15.9425 6.82495 16.0025 6.68245 16.0025Z" fill="#5D6166"/>
</svg>
