<svg width="18" height="19" viewBox="0 0 18 19" fill="none" xmlns="http://www.w3.org/2000/svg">
<path d="M11.4299 17.2025H11.3324C8.00239 17.2025 6.39739 15.89 6.11989 12.95C6.08989 12.6425 6.31489 12.365 6.62989 12.335C6.92989 12.305 7.21489 12.5375 7.24489 12.845C7.46239 15.2 8.57239 16.0775 11.3399 16.0775H11.4374C14.4899 16.0775 15.5699 14.9975 15.5699 11.945V7.05499C15.5699 4.00249 14.4899 2.92249 11.4374 2.92249H11.3399C8.55739 2.92249 7.44739 3.81499 7.24489 6.21499C7.20739 6.52249 6.94489 6.75499 6.62989 6.72499C6.31489 6.70249 6.08989 6.42499 6.11239 6.11749C6.36739 3.13249 7.97989 1.79749 11.3324 1.79749H11.4299C15.1124 1.79749 16.6874 3.37249 16.6874 7.05499V11.945C16.6874 15.6275 15.1124 17.2025 11.4299 17.2025Z" fill="#5C5C5C"/>
<path d="M11.2501 10.0625H2.71509C2.40759 10.0625 2.15259 9.8075 2.15259 9.5C2.15259 9.1925 2.40759 8.9375 2.71509 8.9375H11.2501C11.5576 8.9375 11.8126 9.1925 11.8126 9.5C11.8126 9.8075 11.5576 10.0625 11.2501 10.0625Z" fill="#5C5C5C"/>
<path d="M4.38758 12.575C4.24508 12.575 4.10258 12.5225 3.99008 12.41L1.47758 9.8975C1.26008 9.68 1.26008 9.32001 1.47758 9.10251L3.99008 6.59C4.20758 6.3725 4.56758 6.3725 4.78508 6.59C5.00258 6.8075 5.00258 7.16751 4.78508 7.38501L2.67008 9.50001L4.78508 11.615C5.00258 11.8325 5.00258 12.1925 4.78508 12.41C4.68008 12.5225 4.53008 12.575 4.38758 12.575Z" fill="#5C5C5C"/>
</svg>
