<svg width="32" height="32" viewBox="0 0 32 32" fill="none" xmlns="http://www.w3.org/2000/svg">
<rect x="0.5" y="0.5" width="31" height="31" rx="15.5" fill="white"/>
<rect x="0.5" y="0.5" width="31" height="31" rx="15.5" stroke="#EAEAEA"/>
<path d="M16 19.75C13.93 19.75 12.25 18.07 12.25 16C12.25 13.93 13.93 12.25 16 12.25C18.07 12.25 19.75 13.93 19.75 16C19.75 18.07 18.07 19.75 16 19.75ZM16 13.75C14.76 13.75 13.75 14.76 13.75 16C13.75 17.24 14.76 18.25 16 18.25C17.24 18.25 18.25 17.24 18.25 16C18.25 14.76 17.24 13.75 16 13.75Z" fill="#333333"/>
<path d="M19.21 26.19C19 26.19 18.79 26.16 18.58 26.11C17.96 25.94 17.44 25.55 17.11 25L16.99 24.8C16.4 23.78 15.59 23.78 15 24.8L14.89 24.99C14.56 25.55 14.04 25.95 13.42 26.11C12.79 26.28 12.14 26.19 11.59 25.86L9.87 24.87C9.26 24.52 8.82 23.95 8.63 23.26C8.45 22.57 8.54 21.86 8.89 21.25C9.18 20.74 9.26 20.28 9.09 19.99C8.92 19.7 8.49 19.53 7.9 19.53C6.44 19.53 5.25 18.34 5.25 16.88V15.12C5.25 13.66 6.44 12.47 7.9 12.47C8.49 12.47 8.92 12.3 9.09 12.01C9.26 11.72 9.19 11.26 8.89 10.75C8.54 10.14 8.45 9.41998 8.63 8.73998C8.81 8.04998 9.25 7.47998 9.87 7.12998L11.6 6.13998C12.73 5.46998 14.22 5.85998 14.9 7.00998L15.02 7.20998C15.61 8.22998 16.42 8.22998 17.01 7.20998L17.12 7.01998C17.8 5.85998 19.29 5.46998 20.43 6.14998L22.15 7.13998C22.76 7.48998 23.2 8.05998 23.39 8.74998C23.57 9.43998 23.48 10.15 23.13 10.76C22.84 11.27 22.76 11.73 22.93 12.02C23.1 12.31 23.53 12.48 24.12 12.48C25.58 12.48 26.77 13.67 26.77 15.13V16.89C26.77 18.35 25.58 19.54 24.12 19.54C23.53 19.54 23.1 19.71 22.93 20C22.76 20.29 22.83 20.75 23.13 21.26C23.48 21.87 23.58 22.59 23.39 23.27C23.21 23.96 22.77 24.53 22.15 24.88L20.42 25.87C20.04 26.08 19.63 26.19 19.21 26.19ZM16 22.49C16.89 22.49 17.72 23.05 18.29 24.04L18.4 24.23C18.52 24.44 18.72 24.59 18.96 24.65C19.2 24.71 19.44 24.68 19.64 24.56L21.37 23.56C21.63 23.41 21.83 23.16 21.91 22.86C21.99 22.56 21.95 22.25 21.8 21.99C21.23 21.01 21.16 20 21.6 19.23C22.04 18.46 22.95 18.02 24.09 18.02C24.73 18.02 25.24 17.51 25.24 16.87V15.11C25.24 14.48 24.73 13.96 24.09 13.96C22.95 13.96 22.04 13.52 21.6 12.75C21.16 11.98 21.23 10.97 21.8 9.98998C21.95 9.72998 21.99 9.41998 21.91 9.11998C21.83 8.81998 21.64 8.57998 21.38 8.41998L19.65 7.42998C19.22 7.16998 18.65 7.31998 18.39 7.75998L18.28 7.94998C17.71 8.93998 16.88 9.49998 15.99 9.49998C15.1 9.49998 14.27 8.93998 13.7 7.94998L13.59 7.74998C13.34 7.32998 12.78 7.17998 12.35 7.42998L10.62 8.42998C10.36 8.57998 10.16 8.82998 10.08 9.12998C10 9.42998 10.04 9.73998 10.19 9.99998C10.76 10.98 10.83 11.99 10.39 12.76C9.95 13.53 9.04 13.97 7.9 13.97C7.26 13.97 6.75 14.48 6.75 15.12V16.88C6.75 17.51 7.26 18.03 7.9 18.03C9.04 18.03 9.95 18.47 10.39 19.24C10.83 20.01 10.76 21.02 10.19 22C10.04 22.26 10 22.57 10.08 22.87C10.16 23.17 10.35 23.41 10.61 23.57L12.34 24.56C12.55 24.69 12.8 24.72 13.03 24.66C13.27 24.6 13.47 24.44 13.6 24.23L13.71 24.04C14.28 23.06 15.11 22.49 16 22.49Z" fill="#333333"/>
</svg>
