<svg width="18" height="19" viewBox="0 0 18 19" fill="none" xmlns="http://www.w3.org/2000/svg">
<path d="M15.75 5.54748C15.735 5.54748 15.7125 5.54748 15.69 5.54748C11.7225 5.14998 7.7625 4.99998 3.84 5.39748L2.31 5.54748C1.995 5.57748 1.7175 5.35248 1.6875 5.03748C1.6575 4.72248 1.8825 4.45248 2.19 4.42248L3.72 4.27248C7.71 3.86748 11.7525 4.02498 15.8025 4.42248C16.11 4.45248 16.335 4.72998 16.305 5.03748C16.2825 5.32998 16.035 5.54748 15.75 5.54748Z" fill="#DB2F2F"/>
<path d="M6.37507 4.79C6.34507 4.79 6.31507 4.79 6.27757 4.7825C5.97757 4.73 5.76757 4.4375 5.82007 4.1375L5.98507 3.155C6.10507 2.435 6.27007 1.4375 8.01757 1.4375H9.98257C11.7376 1.4375 11.9026 2.4725 12.0151 3.1625L12.1801 4.1375C12.2326 4.445 12.0226 4.7375 11.7226 4.7825C11.4151 4.835 11.1226 4.625 11.0776 4.325L10.9126 3.35C10.8076 2.6975 10.7851 2.57 9.99007 2.57H8.02507C7.23007 2.57 7.21507 2.675 7.10257 3.3425L6.93007 4.3175C6.88507 4.595 6.64507 4.79 6.37507 4.79Z" fill="#DB2F2F"/>
<path d="M11.4075 17.5626H6.59255C3.97505 17.5626 3.87005 16.1151 3.78755 14.9451L3.30005 7.39256C3.27755 7.08506 3.51755 6.81506 3.82505 6.79256C4.14005 6.77756 4.40255 7.01006 4.42505 7.31756L4.91255 14.8701C4.99505 16.0101 5.02505 16.4376 6.59255 16.4376H11.4075C12.9825 16.4376 13.0125 16.0101 13.0875 14.8701L13.575 7.31756C13.5975 7.01006 13.8675 6.77756 14.175 6.79256C14.4825 6.81506 14.7225 7.07756 14.7 7.39256L14.2125 14.9451C14.13 16.1151 14.025 17.5626 11.4075 17.5626Z" fill="#DB2F2F"/>
<path d="M10.2451 13.4375H7.74756C7.44006 13.4375 7.18506 13.1825 7.18506 12.875C7.18506 12.5675 7.44006 12.3125 7.74756 12.3125H10.2451C10.5526 12.3125 10.8076 12.5675 10.8076 12.875C10.8076 13.1825 10.5526 13.4375 10.2451 13.4375Z" fill="#DB2F2F"/>
<path d="M10.875 10.4375H7.125C6.8175 10.4375 6.5625 10.1825 6.5625 9.875C6.5625 9.5675 6.8175 9.3125 7.125 9.3125H10.875C11.1825 9.3125 11.4375 9.5675 11.4375 9.875C11.4375 10.1825 11.1825 10.4375 10.875 10.4375Z" fill="#DB2F2F"/>
</svg>
