<svg width="18" height="19" viewBox="0 0 18 19" fill="none" xmlns="http://www.w3.org/2000/svg">
<path d="M9 10.0625C6.6225 10.0625 4.6875 8.1275 4.6875 5.75C4.6875 3.3725 6.6225 1.4375 9 1.4375C11.3775 1.4375 13.3125 3.3725 13.3125 5.75C13.3125 8.1275 11.3775 10.0625 9 10.0625ZM9 2.5625C7.245 2.5625 5.8125 3.995 5.8125 5.75C5.8125 7.505 7.245 8.9375 9 8.9375C10.755 8.9375 12.1875 7.505 12.1875 5.75C12.1875 3.995 10.755 2.5625 9 2.5625Z" fill="#5D6166"/>
<path d="M11.8652 17.5625C11.5802 17.5625 11.3102 17.4575 11.1152 17.2625C10.8827 17.03 10.7777 16.6925 10.8302 16.34L10.9727 15.3275C11.0102 15.065 11.1677 14.7575 11.3552 14.5625L14.0102 11.9075C15.0752 10.8425 16.0127 11.45 16.4702 11.9075C16.8602 12.2975 17.0627 12.7175 17.0627 13.1375C17.0627 13.565 16.8677 13.9625 16.4702 14.36L13.8151 17.015C13.6276 17.2025 13.3127 17.3601 13.0502 17.3976L12.0377 17.54C11.9777 17.555 11.9252 17.5625 11.8652 17.5625ZM15.2327 12.44C15.0977 12.44 14.9777 12.53 14.8052 12.7025L12.1502 15.3575C12.1277 15.38 12.0902 15.455 12.0902 15.485L11.9552 16.4225L12.8927 16.2875C12.9227 16.28 12.9976 16.2425 13.0201 16.22L15.6752 13.565C15.7952 13.445 15.9377 13.2725 15.9377 13.1375C15.9377 13.025 15.8477 12.8675 15.6752 12.7025C15.4952 12.5225 15.3602 12.44 15.2327 12.44Z" fill="#5D6166"/>
<path d="M15.6899 14.915C15.6374 14.915 15.5849 14.9075 15.5399 14.8925C14.5499 14.615 13.7624 13.8275 13.4849 12.8375C13.4024 12.5375 13.575 12.23 13.875 12.1475C14.175 12.065 14.4825 12.2375 14.5649 12.5375C14.7375 13.1525 15.225 13.64 15.84 13.8125C16.14 13.895 16.3125 14.21 16.23 14.5025C16.1625 14.75 15.9374 14.915 15.6899 14.915Z" fill="#5D6166"/>
<path d="M2.55762 17.5625C2.25012 17.5625 1.99512 17.3075 1.99512 17C1.99512 13.7975 5.13764 11.1875 9.00014 11.1875C9.81764 11.1875 10.6276 11.3075 11.3851 11.5325C11.6851 11.6225 11.8501 11.9375 11.7601 12.23C11.6701 12.53 11.3551 12.695 11.0626 12.605C10.4026 12.41 9.71264 12.305 9.00014 12.305C5.76014 12.305 3.12012 14.405 3.12012 16.9925C3.12012 17.3075 2.86512 17.5625 2.55762 17.5625Z" fill="#5D6166"/>
</svg>
